<svg width="24" height="16" viewBox="0 0 24 16" fill="none" xmlns="http://www.w3.org/2000/svg">
<path fill-rule="evenodd" clip-rule="evenodd" d="M23.5795 0.412939C23.8488 0.677687 24 1.03656 24 1.41074C24 1.78492 23.8488 2.1438 23.5795 2.40854L10.1589 15.5871C9.88924 15.8515 9.52377 16 9.14272 16C8.76167 16 8.3962 15.8515 8.12659 15.5871L0.457658 8.05648C0.316384 7.92721 0.203071 7.77133 0.12448 7.59813C0.045889 7.42492 0.00363029 7.23795 0.000223784 7.04836C-0.00318272 6.85878 0.0323328 6.67046 0.104653 6.49464C0.176973 6.31882 0.284615 6.15911 0.421158 6.02503C0.557701 5.89095 0.720347 5.78525 0.899393 5.71424C1.07844 5.64322 1.27022 5.60835 1.46329 5.61169C1.65636 5.61504 1.84677 5.65653 2.02315 5.73371C2.19954 5.81088 2.35828 5.92215 2.48992 6.06088L9.14272 12.5937L21.5472 0.412939C21.8168 0.148521 22.1823 0 22.5633 0C22.9444 0 23.3099 0.148521 23.5795 0.412939Z" fill="#1BAD95"/>
</svg>
